<svg width="24" height="28" viewBox="0 0 24 28" fill="none" xmlns="http://www.w3.org/2000/svg">
<path d="M12.3508 6.46154C13.6743 6.46154 15.3333 5.60712 16.3213 4.4679C17.216 3.43547 17.8685 1.99364 17.8685 0.551812C17.8685 0.356008 17.8498 0.160203 17.8125 0C16.3399 0.0534012 14.569 0.943421 13.5065 2.13605C12.6677 3.04387 11.9034 4.4679 11.9034 5.92753C11.9034 6.14113 11.9407 6.35474 11.9593 6.42594C12.0525 6.44374 12.2016 6.46154 12.3508 6.46154ZM7.69053 28C9.4987 28 10.3003 26.843 12.5558 26.843C14.8486 26.843 15.3519 27.9644 17.3652 27.9644C19.3411 27.9644 20.6646 26.22 21.9135 24.5111C23.3116 22.5531 23.8895 20.6306 23.9268 20.5416C23.7963 20.506 20.0122 19.0286 20.0122 14.8811C20.0122 11.2854 22.9947 9.66561 23.1625 9.541C21.1865 6.83535 18.1854 6.76414 17.3652 6.76414C15.1469 6.76414 13.3387 8.04577 12.2016 8.04577C10.9713 8.04577 9.34957 6.83535 7.42956 6.83535C3.77595 6.83535 0.0664062 9.71901 0.0664062 15.1659C0.0664062 18.548 1.44583 22.1259 3.14215 24.4399C4.59614 26.398 5.86373 28 7.69053 28Z" fill="#000100"/>
</svg>
