<svg width="21" height="22" viewBox="0 0 21 22" fill="none" xmlns="http://www.w3.org/2000/svg">
<path d="M21 10.3214C20.8735 8.17859 20.1505 6.12135 18.9204 4.40332C17.6902 2.68529 16.0066 1.38159 14.0771 0.652927C12.1475 -0.075734 10.0565 -0.197496 8.0616 0.302653C6.06675 0.802801 4.25534 1.90299 2.85069 3.4676C1.44604 5.03221 0.509549 6.99282 0.156679 9.10775C-0.19619 11.2227 0.0499822 13.3994 0.864848 15.3697C1.67971 17.34 3.02765 19.0176 4.74248 20.1957C6.45732 21.3739 8.46408 22.0011 10.5154 22H16.6252C17.7851 21.9988 18.8972 21.516 19.7174 20.6576C20.5376 19.7992 20.9988 18.6352 21 17.4212V10.3214ZM19.2501 17.4212C19.2501 18.1499 18.9735 18.8486 18.4813 19.3638C17.989 19.8791 17.3214 20.1685 16.6252 20.1685H10.5154C9.28074 20.1679 8.0601 19.895 6.93302 19.3675C5.80595 18.84 4.79775 18.0698 3.97418 17.1071C3.14662 16.1449 2.52518 15.0087 2.15154 13.7745C1.7779 12.5404 1.6607 11.2369 1.80778 9.95146C2.04002 7.92394 2.91039 6.03497 4.28167 4.58235C5.65295 3.12973 7.44715 2.19607 9.38142 1.92857C9.75873 1.87908 10.1386 1.854 10.5189 1.85348C12.5579 1.84766 14.5339 2.59332 16.1002 3.95971C17.015 4.75544 17.7659 5.73732 18.3073 6.84581C18.8488 7.95431 19.1695 9.16634 19.2501 10.4084V17.4212Z" fill="#F8F7FA"/>
<path d="M7.00066 8.26374H10.5005C10.7325 8.26374 10.9551 8.16725 11.1192 7.99552C11.2833 7.82378 11.3755 7.59086 11.3755 7.34798C11.3755 7.10511 11.2833 6.87219 11.1192 6.70045C10.9551 6.52871 10.7325 6.43223 10.5005 6.43223H7.00066C6.7686 6.43223 6.54606 6.52871 6.38197 6.70045C6.21788 6.87219 6.1257 7.10511 6.1257 7.34798C6.1257 7.59086 6.21788 7.82378 6.38197 7.99552C6.54606 8.16725 6.7686 8.26374 7.00066 8.26374Z" fill="#F8F7FA"/>
<path d="M14.0003 10.0952H7.00066C6.7686 10.0952 6.54606 10.1917 6.38197 10.3635C6.21788 10.5352 6.1257 10.7681 6.1257 11.011C6.1257 11.2539 6.21788 11.4868 6.38197 11.6585C6.54606 11.8303 6.7686 11.9267 7.00066 11.9267H14.0003C14.2324 11.9267 14.4549 11.8303 14.619 11.6585C14.7831 11.4868 14.8753 11.2539 14.8753 11.011C14.8753 10.7681 14.7831 10.5352 14.619 10.3635C14.4549 10.1917 14.2324 10.0952 14.0003 10.0952Z" fill="#F8F7FA"/>
<path d="M14.0003 13.7582H7.00066C6.7686 13.7582 6.54606 13.8547 6.38197 14.0265C6.21788 14.1982 6.1257 14.4311 6.1257 14.674C6.1257 14.9169 6.21788 15.1498 6.38197 15.3215C6.54606 15.4933 6.7686 15.5897 7.00066 15.5897H14.0003C14.2324 15.5897 14.4549 15.4933 14.619 15.3215C14.7831 15.1498 14.8753 14.9169 14.8753 14.674C14.8753 14.4311 14.7831 14.1982 14.619 14.0265C14.4549 13.8547 14.2324 13.7582 14.0003 13.7582Z" fill="#F8F7FA"/>
</svg>
