<svg width="21" height="22" viewBox="0 0 21 22" fill="none" xmlns="http://www.w3.org/2000/svg">
<path d="M16.324 0.852499L5.656 12.0285C5.24855 12.453 4.92553 12.958 4.70564 13.5143C4.48576 14.0705 4.37337 14.6669 4.375 15.2689V16.5C4.375 16.7431 4.46718 16.9763 4.63128 17.1482C4.79537 17.3201 5.01793 17.4167 5.25 17.4167H6.42512C6.99979 17.4184 7.56907 17.3006 8.10001 17.0703C8.63094 16.8399 9.11299 16.5015 9.51824 16.0747L20.1862 4.89866C20.6976 4.36165 20.9848 3.6341 20.9848 2.87558C20.9848 2.11706 20.6976 1.38951 20.1862 0.852499C19.6662 0.331735 18.9745 0.0411119 18.2551 0.0411119C17.5357 0.0411119 16.844 0.331735 16.324 0.852499ZM18.949 3.6025L8.28099 14.7785C7.7876 15.2922 7.12075 15.5814 6.42512 15.5833H6.125V15.2689C6.12682 14.5401 6.40287 13.8415 6.89325 13.3247L17.5612 2.14866C17.7481 1.96162 17.9966 1.85725 18.2551 1.85725C18.5136 1.85725 18.7621 1.96162 18.949 2.14866C19.1327 2.34164 19.2358 2.60305 19.2358 2.87558C19.2358 3.14811 19.1327 3.40952 18.949 3.6025Z" fill="#BDBDBD"/>
<path d="M20.125 8.23074C19.8929 8.23074 19.6704 8.32732 19.5063 8.49923C19.3422 8.67114 19.25 8.90429 19.25 9.14741V13.75H15.75C15.0538 13.75 14.3861 14.0397 13.8938 14.5554C13.4016 15.0712 13.125 15.7706 13.125 16.5V20.1667H4.375C3.6788 20.1667 3.01113 19.8769 2.51884 19.3612C2.02656 18.8455 1.75 18.146 1.75 17.4167V4.58333C1.75 3.85399 2.02656 3.15451 2.51884 2.63879C3.01113 2.12306 3.6788 1.83333 4.375 1.83333H12.2867C12.5188 1.83333 12.7414 1.73675 12.9055 1.56485C13.0696 1.39294 13.1617 1.15978 13.1617 0.916666C13.1617 0.673551 13.0696 0.440393 12.9055 0.268485C12.7414 0.096577 12.5188 0 12.2867 0H4.375C3.2151 0.00145553 2.10311 0.484808 1.28294 1.34403C0.462771 2.20326 0.00138937 3.3682 0 4.58333V17.4167C0.00138937 18.6318 0.462771 19.7967 1.28294 20.656C2.10311 21.5152 3.2151 21.9985 4.375 22H14.3001C14.8749 22.0017 15.4443 21.884 15.9754 21.6536C16.5065 21.4233 16.9887 21.0849 17.3941 20.658L19.7181 18.2215C20.1256 17.797 20.4488 17.292 20.6688 16.7358C20.8888 16.1796 21.0014 15.5832 21 14.9811V9.14741C21 8.90429 20.9078 8.67114 20.7437 8.49923C20.5796 8.32732 20.3571 8.23074 20.125 8.23074ZM16.1569 19.3618C15.8051 19.7294 15.3603 19.9839 14.875 20.0952V16.5C14.875 16.2569 14.9672 16.0237 15.1313 15.8518C15.2954 15.6799 15.5179 15.5833 15.75 15.5833H19.1844C19.0761 16.0907 18.8335 16.5558 18.4844 16.9253L16.1569 19.3618Z" fill="#BDBDBD"/>
</svg>
