<svg width="24" height="24" viewBox="0 0 24 24" fill="none" xmlns="http://www.w3.org/2000/svg">
<path fill-rule="evenodd" clip-rule="evenodd" d="M5 6C5 6.58478 6.3006 7.03736 6.69427 7.18499C8.0034 7.67591 9.87903 8 12 8C14.121 8 15.9966 7.67591 17.3057 7.18499C17.6994 7.03736 19 6.58478 19 6C19 5.41522 17.6994 4.96264 17.3057 4.81501C15.9966 4.32409 14.121 4 12 4C9.87903 4 8.0034 4.32409 6.69427 4.81501C6.3006 4.96264 5 5.41522 5 6ZM18.5474 8.83654C18.3728 8.91475 18.1926 8.98841 18.008 9.05765C16.4217 9.65251 14.2973 10 12 10C9.70269 10 7.57833 9.65251 5.99202 9.05765C5.80737 8.98841 5.62716 8.91475 5.45264 8.83654C6.18824 11.0498 7.75497 12.77 9.66547 13.5437C10.3997 13.841 11 14.5583 11 15.468V19.7192L13 19.2192V15.468C13 14.5583 13.6003 13.841 14.3345 13.5437C16.245 12.77 17.8118 11.0498 18.5474 8.83654ZM3 6C3 10.2639 5.41352 13.9796 8.91476 15.3974C8.95284 15.4128 8.97854 15.436 8.9915 15.4538C8.99723 15.4616 8.99932 15.4665 9 15.4688V19.7192C9 21.0204 10.2228 21.9751 11.4851 21.6595L13.4851 21.1595C14.3754 20.9369 15 20.137 15 19.2192V15.4688C15.0007 15.4665 15.0028 15.4616 15.0085 15.4538C15.0215 15.436 15.0472 15.4128 15.0852 15.3974C18.5865 13.9796 21 10.2639 21 6C21 5.19711 20.5625 4.55194 20.0347 4.08401C19.5058 3.61504 18.7974 3.2384 18.008 2.94235C16.4217 2.34749 14.2973 2 12 2C9.70269 2 7.57833 2.34749 5.99202 2.94235C5.20256 3.2384 4.49422 3.61504 3.96527 4.08401C3.43749 4.55194 3 5.19711 3 6Z" fill="#3A3A3A"/>
</svg>
