<svg width="30" height="28" viewBox="0 0 30 28" fill="none" xmlns="http://www.w3.org/2000/svg">
<path fill-rule="evenodd" clip-rule="evenodd" d="M29.1537 14.3182C29.1537 13.3255 29.0613 12.371 28.8896 11.4546H15.2109V16.87H23.0273C22.6906 18.62 21.6674 20.1028 20.1292 21.0955V24.6082H24.823C27.5693 22.171 29.1537 18.5819 29.1537 14.3182Z" fill="#4285F4"/>
<path fill-rule="evenodd" clip-rule="evenodd" d="M15.2094 27.9999C19.1308 27.9999 22.4184 26.7463 24.8214 24.6081L20.1276 21.0954C18.8271 21.9354 17.1635 22.4317 15.2094 22.4317C11.4266 22.4317 8.22479 19.969 7.0827 16.6599H2.23047V20.2872C4.62028 24.8626 9.53193 27.9999 15.2094 27.9999Z" fill="#34A853"/>
<path fill-rule="evenodd" clip-rule="evenodd" d="M7.08062 16.6599C6.79015 15.8199 6.62511 14.9226 6.62511 13.9999C6.62511 13.0772 6.79015 12.1799 7.08062 11.3399V7.71265H2.22839C1.24474 9.60265 0.683594 11.7408 0.683594 13.9999C0.683594 16.259 1.24474 18.3972 2.22839 20.2872L7.08062 16.6599Z" fill="#FBBC05"/>
<path fill-rule="evenodd" clip-rule="evenodd" d="M15.2094 5.56818C17.3417 5.56818 19.2562 6.27455 20.7614 7.66182L24.927 3.64637C22.4118 1.38727 19.1242 0 15.2094 0C9.53193 0 4.62028 3.13727 2.23047 7.71273L7.0827 11.34C8.22479 8.03091 11.4266 5.56818 15.2094 5.56818Z" fill="#EA4335"/>
</svg>
