<svg width="24" height="24" viewBox="0 0 24 24" fill="none" xmlns="http://www.w3.org/2000/svg">
<path d="M18 3C19.6569 3 21 4.34315 21 6V18C21 19.6569 19.6569 21 18 21H6C4.34315 21 3 19.6569 3 18V6C3 4.34315 4.34315 3 6 3H18ZM18 5H6C5.44772 5 5 5.44772 5 6V18C5 18.5523 5.44772 19 6 19H18C18.5523 19 19 18.5523 19 18V6C19 5.44772 18.5523 5 18 5ZM8 10C8.51283 10 8.93551 10.386 8.99327 10.8834L9 11V16C9 16.5523 8.55228 17 8 17C7.48717 17 7.06449 16.614 7.00673 16.1166L7 16V11C7 10.4477 7.44772 10 8 10ZM11 9C11.4913 9 11.8998 9.35427 11.9841 9.82128C12.1863 9.70435 12.395 9.59892 12.6067 9.50837C13.2739 9.22295 14.2732 9.06594 15.1749 9.34949C15.6476 9.4981 16.1232 9.77907 16.4758 10.2556C16.7905 10.681 16.9599 11.1984 16.9937 11.7793L17 12V16C17 16.5522 16.5523 17 16 17C15.4872 17 15.0645 16.6139 15.0067 16.1166L15 16V12C15 11.6707 14.9201 11.5157 14.868 11.4451C14.8143 11.3726 14.7274 11.3053 14.5751 11.2574C14.2268 11.1479 13.7261 11.2048 13.3933 11.3472C12.8923 11.5615 12.4347 11.8971 12.1239 12.2083L12 12.3398V16C12 16.5523 11.5523 17 11 17C10.4872 17 10.0645 16.614 10.0067 16.1166L10 16V10C10 9.44772 10.4477 9 11 9ZM8 7C8.55228 7 9 7.44772 9 8C9 8.55228 8.55228 9 8 9C7.44772 9 7 8.55228 7 8C7 7.44772 7.44772 7 8 7Z" fill="#3A3A3A"/>
</svg>
