<svg width="20" height="25" viewBox="0 0 20 25" fill="none" xmlns="http://www.w3.org/2000/svg">
<path d="M10 21.8759C12.5679 19.771 14.5062 17.7476 15.8148 15.8056C17.1235 13.8635 17.7778 12.0531 17.7778 10.3742C17.7778 8.89572 17.5123 7.6428 16.9815 6.61541C16.4506 5.58801 15.7963 4.74856 15.0185 4.09704C14.2407 3.44552 13.3951 2.97568 12.4815 2.68751C11.5679 2.39934 10.7407 2.25525 10 2.25525C9.25926 2.25525 8.4321 2.39934 7.51852 2.68751C6.60494 2.97568 5.75926 3.44552 4.98148 4.09704C4.2037 4.74856 3.54938 5.58801 3.01852 6.61541C2.48765 7.6428 2.22222 8.89572 2.22222 10.3742C2.22222 12.0531 2.87654 13.8635 4.18518 15.8056C5.49383 17.7476 7.4321 19.771 10 21.8759ZM10 24.7326C6.61728 22.1516 4.10494 19.6833 2.46296 17.3279C0.820988 14.9724 0 12.6545 0 10.3742C0 8.67019 0.302469 7.17296 0.907408 5.88245C1.51235 4.59194 2.2963 3.50817 3.25926 2.63113C4.22222 1.75409 5.2963 1.0963 6.48148 0.657782C7.66667 0.219261 8.83951 0 10 0C11.1605 0 12.3333 0.219261 13.5185 0.657782C14.7037 1.0963 15.7778 1.75409 16.7407 2.63113C17.7037 3.50817 18.4877 4.59194 19.0926 5.88245C19.6975 7.17296 20 8.67019 20 10.3742C20 12.6545 19.179 14.9724 17.537 17.3279C15.8951 19.6833 13.3827 22.1516 10 24.7326ZM10 12.7798C10.716 12.7798 11.3272 12.5229 11.8333 12.0092C12.3395 11.4955 12.5926 10.8753 12.5926 10.1486C12.5926 9.42194 12.3395 8.80175 11.8333 8.28805C11.3272 7.77436 10.716 7.51751 10 7.51751C9.28395 7.51751 8.67284 7.77436 8.16667 8.28805C7.66049 8.80175 7.40741 9.42194 7.40741 10.1486C7.40741 10.8753 7.66049 11.4955 8.16667 12.0092C8.67284 12.5229 9.28395 12.7798 10 12.7798Z" fill="#F8F7FA"/>
</svg>
