<svg width="20" height="22" viewBox="0 0 20 22" fill="none" xmlns="http://www.w3.org/2000/svg">
<path d="M9.9964 0C10.7494 0 11.3598 0.615262 11.3598 1.37422V5.95495C11.3598 6.7139 10.7494 7.32916 9.9964 7.32916C9.24339 7.32916 8.63295 6.7139 8.63295 5.95495V1.37422C8.63295 0.615262 9.24335 0 9.9964 0Z" fill="#BDBDBD"/>
<path d="M13.1778 4.52576C13.1711 4.98707 13.4018 5.419 13.7877 5.66727C17.2147 7.77767 18.2954 12.2886 16.2015 15.7427C14.1076 19.1967 9.63206 20.286 6.20503 18.1756C2.778 16.0652 1.69729 11.5542 3.79121 8.10014C4.38951 7.1132 5.21107 6.28296 6.18871 5.67731C6.58117 5.42905 6.81815 4.99364 6.815 4.52662C6.81709 3.76767 6.20835 3.15073 5.45534 3.14863C5.19671 3.1479 4.9432 3.22133 4.7244 3.36039C0.0334973 6.29709 -1.4072 12.5104 1.50645 17.2383C4.4201 21.9662 10.5848 23.4183 15.2756 20.4817C19.9665 17.545 21.4072 11.3317 18.4935 6.60375C17.6825 5.28772 16.5814 4.17787 15.2756 3.36043C14.6366 2.95413 13.7919 3.14687 13.3887 3.7909C13.251 4.01086 13.1779 4.26565 13.1778 4.52576Z" fill="#BDBDBD"/>
</svg>
