<svg width="36" height="22" viewBox="0 0 36 22" fill="none" xmlns="http://www.w3.org/2000/svg">
<path d="M17.098 1.70259C17.7645 1.30379 18.5963 1.30379 19.2628 1.70259L26.6749 6.13756C28.5108 7.23606 27.732 10.0547 25.5925 10.0547H10.7684C8.62891 10.0547 7.85005 7.23606 9.68595 6.13756L17.098 1.70259Z" fill="#FAAC40" stroke="#27874E" stroke-width="2"/>
<rect x="9.65625" y="11.1599" width="1.89468" height="6.94717" rx="0.947342" fill="#27874E"/>
<rect x="17.2344" y="11.1599" width="1.89468" height="6.94717" rx="0.947342" fill="#27874E"/>
<rect x="25.4453" y="11.1599" width="1.89468" height="6.94717" rx="0.947342" fill="#27874E"/>
<rect x="6.49609" y="19.3702" width="23.9993" height="1.89468" rx="0.947342" fill="#27874E"/>
<path d="M26.3917 12.423C29.3565 12.423 31.76 9.8782 31.76 6.73898C31.76 3.59977 29.3565 1.05493 26.3917 1.05493C23.4269 1.05493 21.0234 3.59977 21.0234 6.73898C21.0234 9.8782 23.4269 12.423 26.3917 12.423Z" fill="white" stroke="#27874E" stroke-width="2" stroke-linecap="round" stroke-linejoin="round"/>
<path d="M26.3902 1.05493C27.7724 2.61143 28.5579 4.63136 28.6006 6.73898C28.5579 8.84661 27.7724 10.8665 26.3902 12.423C25.0079 10.8665 24.2224 8.84661 24.1797 6.73898C24.2224 4.63136 25.0079 2.61143 26.3902 1.05493Z" fill="#FAAC40" stroke="#27874E" stroke-width="2" stroke-linecap="round" stroke-linejoin="round"/>
<path d="M21.0234 6.73901H31.76" stroke="#27874E" stroke-width="2" stroke-linecap="round" stroke-linejoin="round"/>
</svg>
