<svg width="22" height="17" viewBox="0 0 22 17" fill="none" xmlns="http://www.w3.org/2000/svg">
<path d="M6.41667 2.83333H21.0833C21.3264 2.83333 21.5596 2.73383 21.7315 2.55671C21.9034 2.37959 22 2.13937 22 1.88889C22 1.63841 21.9034 1.39818 21.7315 1.22107C21.5596 1.04395 21.3264 0.944444 21.0833 0.944444H6.41667C6.17355 0.944444 5.94039 1.04395 5.76849 1.22107C5.59658 1.39818 5.5 1.63841 5.5 1.88889C5.5 2.13937 5.59658 2.37959 5.76849 2.55671C5.94039 2.73383 6.17355 2.83333 6.41667 2.83333Z" fill="#F8F7FA"/>
<path d="M21.0833 7.55556H6.41667C6.17355 7.55556 5.94039 7.65506 5.76849 7.83218C5.59658 8.0093 5.5 8.24952 5.5 8.5C5.5 8.75048 5.59658 8.99071 5.76849 9.16782C5.94039 9.34494 6.17355 9.44445 6.41667 9.44445H21.0833C21.3264 9.44445 21.5596 9.34494 21.7315 9.16782C21.9034 8.99071 22 8.75048 22 8.5C22 8.24952 21.9034 8.0093 21.7315 7.83218C21.5596 7.65506 21.3264 7.55556 21.0833 7.55556Z" fill="#F8F7FA"/>
<path d="M21.0833 14.1667H6.41667C6.17355 14.1667 5.94039 14.2662 5.76849 14.4433C5.59658 14.6204 5.5 14.8606 5.5 15.1111C5.5 15.3616 5.59658 15.6018 5.76849 15.7789C5.94039 15.9561 6.17355 16.0556 6.41667 16.0556H21.0833C21.3264 16.0556 21.5596 15.9561 21.7315 15.7789C21.9034 15.6018 22 15.3616 22 15.1111C22 14.8606 21.9034 14.6204 21.7315 14.4433C21.5596 14.2662 21.3264 14.1667 21.0833 14.1667Z" fill="#F8F7FA"/>
<path d="M1.83333 3.77778C2.84586 3.77778 3.66667 2.93209 3.66667 1.88889C3.66667 0.845684 2.84586 0 1.83333 0C0.820811 0 0 0.845684 0 1.88889C0 2.93209 0.820811 3.77778 1.83333 3.77778Z" fill="#F8F7FA"/>
<path d="M1.83333 10.3889C2.84586 10.3889 3.66667 9.54321 3.66667 8.5C3.66667 7.4568 2.84586 6.61111 1.83333 6.61111C0.820811 6.61111 0 7.4568 0 8.5C0 9.54321 0.820811 10.3889 1.83333 10.3889Z" fill="#F8F7FA"/>
<path d="M1.83333 17C2.84586 17 3.66667 16.1543 3.66667 15.1111C3.66667 14.0679 2.84586 13.2222 1.83333 13.2222C0.820811 13.2222 0 14.0679 0 15.1111C0 16.1543 0.820811 17 1.83333 17Z" fill="#F8F7FA"/>
</svg>
