<svg width="21" height="21" viewBox="0 0 21 21" fill="none" xmlns="http://www.w3.org/2000/svg">
<rect x="1" y="0.844482" width="18.6772" height="18.5338" rx="9.26689" fill="#F2F4F7"/>
<g clip-path="url(#clip0_2136_7287)">
<path d="M8.39237 9.79396V8.23753C8.39237 7.72154 8.59734 7.22669 8.9622 6.86183C9.32706 6.49697 9.82192 6.29199 10.3379 6.29199C10.8539 6.29199 11.3488 6.49697 11.7136 6.86183C12.0785 7.22669 12.2834 7.72154 12.2834 8.23753V9.79396M7.61415 9.79396H13.0617C13.4915 9.79396 13.8399 10.1424 13.8399 10.5722V13.2959C13.8399 13.7257 13.4915 14.0741 13.0617 14.0741H7.61415C7.18436 14.0741 6.83594 13.7257 6.83594 13.2959V10.5722C6.83594 10.1424 7.18436 9.79396 7.61415 9.79396Z" stroke="#020246" stroke-width="0.778215" stroke-linecap="round" stroke-linejoin="round"/>
</g>
<rect x="1" y="0.844482" width="18.6772" height="18.5338" rx="9.26689" stroke="#FCFCFD" stroke-width="1.55643"/>
<defs>
<clipPath id="clip0_2136_7287">
<rect width="9.33858" height="9.33858" fill="white" transform="translate(5.66797 5.51379)"/>
</clipPath>
</defs>
</svg>
