<svg width="24" height="22" viewBox="0 0 24 22" fill="none" xmlns="http://www.w3.org/2000/svg">
<path d="M10.832 21.5V19.75H20.7487V10.8833C20.7487 9.75556 20.5056 8.67153 20.0195 7.63125C19.5334 6.59097 18.882 5.67222 18.0654 4.875C17.2487 4.07778 16.3154 3.44097 15.2654 2.96458C14.2154 2.48819 13.1265 2.25 11.9987 2.25C10.8709 2.25 9.78203 2.48819 8.73203 2.96458C7.68203 3.44097 6.7487 4.07778 5.93203 4.875C5.11537 5.67222 4.46398 6.59097 3.97786 7.63125C3.49175 8.67153 3.2487 9.75556 3.2487 10.8833V18H2.66536C2.0237 18 1.47439 17.7715 1.01745 17.3146C0.560504 16.8576 0.332031 16.3083 0.332031 15.6667V13.3333C0.332031 12.8861 0.438976 12.4924 0.652865 12.1521C0.866754 11.8118 1.1487 11.5347 1.4987 11.3208L1.5862 9.775C1.7612 8.35556 2.16467 7.07222 2.79661 5.925C3.42856 4.77778 4.21606 3.80556 5.15911 3.00833C6.10217 2.21111 7.16189 1.59375 8.33828 1.15625C9.51467 0.71875 10.7348 0.5 11.9987 0.5C13.282 0.5 14.5119 0.71875 15.6883 1.15625C16.8647 1.59375 17.9195 2.21597 18.8529 3.02292C19.7862 3.82986 20.5688 4.80208 21.2008 5.93958C21.8327 7.07708 22.2362 8.34583 22.4112 9.74583L22.4987 11.2625C22.8487 11.4375 23.1306 11.6951 23.3445 12.0354C23.5584 12.3757 23.6654 12.75 23.6654 13.1583V15.8417C23.6654 16.2694 23.5584 16.6486 23.3445 16.9792C23.1306 17.3097 22.8487 17.5625 22.4987 17.7375V19.75C22.4987 20.2361 22.3286 20.6493 21.9883 20.9896C21.648 21.3299 21.2348 21.5 20.7487 21.5H10.832ZM8.4987 13.0417C8.26537 13.0417 8.0612 12.9542 7.8862 12.7792C7.7112 12.6042 7.6237 12.3903 7.6237 12.1375C7.6237 11.9042 7.7112 11.7049 7.8862 11.5396C8.0612 11.3743 8.27509 11.2917 8.52786 11.2917C8.7612 11.2917 8.9605 11.3743 9.12578 11.5396C9.29106 11.7049 9.3737 11.9139 9.3737 12.1667C9.3737 12.4 9.29106 12.6042 9.12578 12.7792C8.9605 12.9542 8.75148 13.0417 8.4987 13.0417ZM15.4987 13.0417C15.2654 13.0417 15.0612 12.9542 14.8862 12.7792C14.7112 12.6042 14.6237 12.3903 14.6237 12.1375C14.6237 11.9042 14.7112 11.7049 14.8862 11.5396C15.0612 11.3743 15.2751 11.2917 15.5279 11.2917C15.7612 11.2917 15.9605 11.3743 16.1258 11.5396C16.2911 11.7049 16.3737 11.9139 16.3737 12.1667C16.3737 12.4 16.2911 12.6042 16.1258 12.7792C15.9605 12.9542 15.7515 13.0417 15.4987 13.0417ZM5.02786 11.525C4.95009 10.3778 5.1105 9.3375 5.50911 8.40417C5.90773 7.47083 6.44245 6.67847 7.11328 6.02708C7.78412 5.37569 8.55703 4.875 9.43203 4.525C10.307 4.175 11.182 4 12.057 4C13.8265 4 15.314 4.55903 16.5195 5.67708C17.7251 6.79514 18.464 8.19028 18.7362 9.8625C16.9084 9.84305 15.2994 9.35208 13.9091 8.38958C12.5188 7.42708 11.4445 6.17778 10.6862 4.64167C10.3751 6.21667 9.71884 7.6118 8.71745 8.82708C7.71606 10.0424 6.4862 10.9417 5.02786 11.525Z" fill="#BDBDBD"/>
</svg>
