<svg width="29" height="37" viewBox="0 0 29 37" fill="none" xmlns="http://www.w3.org/2000/svg">
<path d="M19.3944 5.91231C19.5203 5.47792 20.1124 5.42061 20.3193 5.82279L26.5109 17.8588C26.6144 18.0601 26.5699 18.3057 26.4023 18.4578L13.2668 30.3781L14.2748 31.4889L13.2668 30.3781C13.1482 30.4858 13.0484 30.5126 12.9709 30.517C12.8799 30.5222 12.7705 30.4972 12.666 30.432C12.5616 30.3668 12.4911 30.2795 12.4558 30.1955C12.4257 30.124 12.4059 30.0225 12.4505 29.8687L19.3944 5.91231Z" fill="white" stroke="#27874E" stroke-width="3"/>
<path d="M10.8983 5.91231C11.0242 5.47792 11.6163 5.42061 11.8232 5.82279L18.0148 17.8588C18.1183 18.0601 18.0738 18.3057 17.9062 18.4578L4.77069 30.3781L5.77872 31.4889L4.77069 30.3781C4.65208 30.4858 4.55227 30.5126 4.47478 30.517C4.38384 30.5222 4.27438 30.4972 4.16993 30.432C4.06549 30.3668 3.995 30.2795 3.95968 30.1955C3.92959 30.124 3.90985 30.0225 3.95444 29.8687L10.8983 5.91231Z" fill="#FAAC40" stroke="#27874E" stroke-width="3"/>
</svg>
