<svg width="50" height="50" viewBox="0 0 50 50" fill="none" xmlns="http://www.w3.org/2000/svg">
<circle cx="25.7073" cy="25.706" r="19.0588" fill="white"/>
<mask id="mask0_367_1169" style="mask-type:alpha" maskUnits="userSpaceOnUse" x="6" y="6" width="39" height="39">
<circle cx="25.7073" cy="25.706" r="19.0588" fill="#EEEEEE"/>
</mask>
<g mask="url(#mask0_367_1169)">
<path d="M25.7065 28.3051C30.172 28.3051 33.7921 24.6204 33.7921 20.0752C33.7921 15.5299 30.172 11.8452 25.7065 11.8452C21.241 11.8452 17.6209 15.5299 17.6209 20.0752C17.6209 24.6204 21.241 28.3051 25.7065 28.3051Z" fill="#595454"/>
<path d="M25.7065 31.0484C19.0113 31.056 13.5856 36.5786 13.5781 43.3934C13.5781 44.1509 14.1814 44.765 14.9257 44.765H36.4872C37.2315 44.765 37.8348 44.1509 37.8348 43.3934C37.8274 36.5786 32.4017 31.056 25.7065 31.0484Z" fill="#595454"/>
</g>
<circle cx="25" cy="25" r="24.375" stroke="#757373" stroke-width="0.75"/>
</svg>
