<svg width="27" height="21" viewBox="0 0 27 21" fill="none" xmlns="http://www.w3.org/2000/svg">
<path d="M2.13754 1.89673H21.3754C21.4761 1.89673 21.6138 1.94019 21.7536 2.10143C21.8961 2.26572 22.0129 2.52997 22.0129 2.8618V17.6522C22.0129 17.984 21.8961 18.2483 21.7536 18.4126C21.6138 18.5738 21.4761 18.6173 21.3754 18.6173H2.13754C2.03686 18.6173 1.89915 18.5738 1.75934 18.4126C1.61688 18.2483 1.5 17.984 1.5 17.6522V2.8618C1.5 2.52997 1.61688 2.26572 1.75934 2.10143C1.89915 1.94019 2.03686 1.89673 2.13754 1.89673Z" fill="#FAAC40" stroke="#27874E" stroke-width="3" stroke-linecap="round" stroke-linejoin="round"/>
<rect x="16.668" y="6.44751" width="8.37723" height="6.10179" rx="3.05089" fill="white" stroke="#27874E" stroke-width="3"/>
<circle cx="19.7194" cy="9.49847" r="0.758482" fill="#27874E"/>
</svg>
