<svg width="13" height="13" viewBox="0 0 13 13" fill="none" xmlns="http://www.w3.org/2000/svg">
<path fill-rule="evenodd" clip-rule="evenodd" d="M6.23608 0.519531C6.43388 0.519531 6.61453 0.631821 6.70208 0.809191L8.18711 3.81769L11.5081 4.3031C11.7038 4.33171 11.8663 4.4689 11.9273 4.65703C11.9883 4.84516 11.9372 5.05161 11.7955 5.1896L9.39291 7.52975L9.95993 10.8358C9.99337 11.0307 9.91321 11.2278 9.75316 11.3441C9.59311 11.4603 9.38093 11.4757 9.20584 11.3836L6.23608 9.82181L3.26631 11.3836C3.09122 11.4757 2.87904 11.4603 2.71899 11.3441C2.55894 11.2278 2.47878 11.0307 2.51222 10.8358L3.07924 7.52975L0.67663 5.1896C0.534955 5.05161 0.483884 4.84516 0.544883 4.65703C0.605882 4.4689 0.768377 4.33171 0.96407 4.3031L4.28504 3.81769L5.77007 0.809191C5.85762 0.631821 6.03827 0.519531 6.23608 0.519531ZM6.23608 2.21332L5.09626 4.52247C5.02062 4.67569 4.87449 4.78195 4.70541 4.80666L2.15573 5.17934L4.00025 6.97591C4.12283 7.0953 4.17878 7.26738 4.14986 7.43604L3.71466 9.97346L5.99419 8.77468C6.14562 8.69505 6.32654 8.69505 6.47796 8.77468L8.75749 9.97346L8.32229 7.43604C8.29337 7.26738 8.34932 7.0953 8.4719 6.97591L10.3164 5.17934L7.76674 4.80666C7.59766 4.78195 7.45153 4.67569 7.3759 4.52247L6.23608 2.21332Z" fill="#FAAC40"/>
</svg>
